<?xml version="1.0" standalone="no"?><!DOCTYPE svg PUBLIC "-//W3C//DTD SVG 1.1//EN" "http://www.w3.org/Graphics/SVG/1.1/DTD/svg11.dtd"><svg t="1556546967088" class="icon" style="" viewBox="0 0 1024 1024" version="1.1" xmlns="http://www.w3.org/2000/svg" p-id="2018" xmlns:xlink="http://www.w3.org/1999/xlink" width="32" height="32"><defs><style type="text/css"></style></defs><path d="M511.936 320a192 192 0 1 0 0 384 192 192 0 0 0 0-384z m0 320a128 128 0 1 1 0-256 128 128 0 0 1 0 256z m0 256c-98.88 0-199.84-41.376-300.064-122.976-76.416-62.208-135.84-134.272-172.288-183.84A128.864 128.864 0 0 1 13.824 512c0-36.576 18.848-67.072 24.64-75.552l1.344-1.888c36.512-49.632 96.128-121.856 172.704-184.096C312.544 169.216 413.28 128 511.968 128c94.592 0 191.232 37.888 287.232 112.576 76.832 59.744 137.024 130.56 174.016 179.424 8.672 11.456 36.992 51.968 36.992 92v0.224c0 27.456-8.672 52.864-23.456 73.632l0.256-0.384-0.704 0.992c-36.288 49.696-95.616 122.112-172.256 184.928-100.896 82.688-202.528 124.64-302.112 124.64zM91.2 472.672c-5.056 7.488-13.376 23.936-13.376 39.328 0 13.984 4.576 27.712 12.928 38.72l0.288 0.384c34.208 46.592 89.984 114.272 161.248 172.288C340.832 795.456 428.192 832 511.968 832c84.384 0 172.384-37.056 261.536-110.144 71.36-58.496 126.976-126.368 161.056-173.056l0.16-0.224a63.04 63.04 0 0 0 11.488-36.48v-0.128c0-14.88-12.448-38.112-24.032-53.376-34.688-45.792-90.976-112.064-162.304-167.552-84.512-65.76-167.936-99.072-247.936-99.072-83.584 0-170.752 36.384-259.104 108.128-71.232 57.856-127.008 125.472-161.344 172.096l-0.32 0.448z" p-id="2019"></path></svg>