<?xml version="1.0" standalone="no"?><!DOCTYPE svg PUBLIC "-//W3C//DTD SVG 1.1//EN" "http://www.w3.org/Graphics/SVG/1.1/DTD/svg11.dtd"><svg t="1569657466467" class="icon" viewBox="0 0 1024 1024" version="1.1" xmlns="http://www.w3.org/2000/svg" p-id="2505" xmlns:xlink="http://www.w3.org/1999/xlink" width="24" height="24"><defs><style type="text/css"></style></defs><path d="M192 480a256 256 0 1 1 512 0 256 256 0 0 1-512 0m631.776 362.496l-143.2-143.168A318.464 318.464 0 0 0 768 480c0-176.736-143.264-320-320-320S128 303.264 128 480s143.264 320 320 320a318.016 318.016 0 0 0 184.16-58.592l146.336 146.368c12.512 12.48 32.768 12.48 45.28 0 12.48-12.512 12.48-32.768 0-45.28" p-id="2506" fill="#FF3030"></path></svg>